<svg xmlns="http://www.w3.org/2000/svg" viewBox="0 0 32 32" shape-rendering="crispEdges">
  <!-- Arcane: Purple swirl, rune particles -->
  <g id="effects">
    <!-- Rune particles -->
    <rect x="5" y="10" width="1" height="1" fill="#C02DFF"/>
    <rect x="26" y="12" width="1" height="1" fill="#FFFFFF"/>
    <rect x="8" y="24" width="1" height="1" fill="#C02DFF"/>
    <rect x="23" y="5" width="1" height="1" fill="#FFFFFF"/>
    <rect x="4" y="20" width="1" height="1" fill="#9B3FE8"/>
    <rect x="27" y="22" width="1" height="1" fill="#9B3FE8"/>
    <rect x="10" y="3" width="1" height="1" fill="#FFFFFF"/>
    <rect x="22" y="27" width="1" height="1" fill="#C02DFF"/>
  </g>
  <g id="base">
    <!-- Outer ring of arcane circle -->
    <rect x="12" y="6" width="8" height="1" fill="#9B3FE8"/>
    <rect x="10" y="7" width="2" height="1" fill="#9B3FE8"/>
    <rect x="20" y="7" width="2" height="1" fill="#9B3FE8"/>
    <rect x="8" y="8" width="2" height="1" fill="#9B3FE8"/>
    <rect x="22" y="8" width="2" height="1" fill="#9B3FE8"/>
    <rect x="7" y="9" width="2" height="1" fill="#5B1B8B"/>
    <rect x="23" y="9" width="2" height="1" fill="#5B1B8B"/>
    <rect x="7" y="10" width="1" height="1" fill="#5B1B8B"/>
    <rect x="24" y="10" width="1" height="1" fill="#5B1B8B"/>
    <rect x="6" y="11" width="1" height="2" fill="#5B1B8B"/>
    <rect x="25" y="11" width="1" height="2" fill="#5B1B8B"/>
    <rect x="6" y="13" width="1" height="2" fill="#5B1B8B"/>
    <rect x="25" y="13" width="1" height="2" fill="#5B1B8B"/>
    <rect x="6" y="15" width="1" height="2" fill="#5B1B8B"/>
    <rect x="25" y="15" width="1" height="2" fill="#5B1B8B"/>
    <rect x="6" y="17" width="1" height="2" fill="#5B1B8B"/>
    <rect x="25" y="17" width="1" height="2" fill="#5B1B8B"/>
    <rect x="7" y="19" width="1" height="1" fill="#5B1B8B"/>
    <rect x="24" y="19" width="1" height="1" fill="#5B1B8B"/>
    <rect x="7" y="20" width="2" height="1" fill="#5B1B8B"/>
    <rect x="23" y="20" width="2" height="1" fill="#5B1B8B"/>
    <rect x="8" y="21" width="2" height="1" fill="#9B3FE8"/>
    <rect x="22" y="21" width="2" height="1" fill="#9B3FE8"/>
    <rect x="10" y="22" width="2" height="1" fill="#9B3FE8"/>
    <rect x="20" y="22" width="2" height="1" fill="#9B3FE8"/>
    <rect x="12" y="23" width="8" height="1" fill="#9B3FE8"/>
    <!-- Inner arcane star/rune shape -->
    <rect x="15" y="9" width="2" height="1" fill="#C02DFF"/>
    <rect x="14" y="10" width="4" height="1" fill="#C02DFF"/>
    <rect x="11" y="11" width="10" height="1" fill="#C02DFF"/>
    <rect x="10" y="12" width="12" height="1" fill="#C02DFF"/>
    <rect x="9" y="13" width="14" height="1" fill="#9B3FE8"/>
    <rect x="9" y="14" width="14" height="1" fill="#9B3FE8"/>
    <rect x="9" y="15" width="14" height="1" fill="#9B3FE8"/>
    <rect x="9" y="16" width="14" height="1" fill="#5B1B8B"/>
    <rect x="10" y="17" width="12" height="1" fill="#5B1B8B"/>
    <rect x="11" y="18" width="10" height="1" fill="#5B1B8B"/>
    <rect x="14" y="19" width="4" height="1" fill="#5B1B8B"/>
    <rect x="15" y="20" width="2" height="1" fill="#5B1B8B"/>
    <!-- Central eye/core -->
    <rect x="14" y="13" width="4" height="1" fill="#FFFFFF"/>
    <rect x="13" y="14" width="6" height="1" fill="#C02DFF"/>
    <rect x="14" y="15" width="4" height="1" fill="#FFFFFF"/>
    <rect x="15" y="14" width="2" height="1" fill="#FFFFFF"/>
  </g>
  <g id="outline">
    <!-- Outer circle outline -->
    <rect x="12" y="5" width="8" height="1" fill="#0A0A14"/>
    <rect x="10" y="6" width="2" height="1" fill="#0A0A14"/>
    <rect x="20" y="6" width="2" height="1" fill="#0A0A14"/>
    <rect x="8" y="7" width="2" height="1" fill="#0A0A14"/>
    <rect x="22" y="7" width="2" height="1" fill="#0A0A14"/>
    <rect x="7" y="8" width="1" height="1" fill="#0A0A14"/>
    <rect x="24" y="8" width="1" height="1" fill="#0A0A14"/>
    <rect x="6" y="9" width="1" height="2" fill="#0A0A14"/>
    <rect x="25" y="9" width="1" height="2" fill="#0A0A14"/>
    <rect x="5" y="11" width="1" height="8" fill="#0A0A14"/>
    <rect x="26" y="11" width="1" height="8" fill="#0A0A14"/>
    <rect x="6" y="19" width="1" height="2" fill="#0A0A14"/>
    <rect x="25" y="19" width="1" height="2" fill="#0A0A14"/>
    <rect x="7" y="21" width="1" height="1" fill="#0A0A14"/>
    <rect x="24" y="21" width="1" height="1" fill="#0A0A14"/>
    <rect x="8" y="22" width="2" height="1" fill="#0A0A14"/>
    <rect x="22" y="22" width="2" height="1" fill="#0A0A14"/>
    <rect x="10" y="23" width="2" height="1" fill="#0A0A14"/>
    <rect x="20" y="23" width="2" height="1" fill="#0A0A14"/>
    <rect x="12" y="24" width="8" height="1" fill="#0A0A14"/>
  </g>
  <g id="highlight">
    <rect x="13" y="7" width="1" height="1" fill="#E0E8F0"/>
    <rect x="9" y="10" width="1" height="1" fill="#C02DFF"/>
    <rect x="15" y="10" width="1" height="1" fill="#FFFFFF"/>
  </g>
</svg>
