<svg xmlns="http://www.w3.org/2000/svg" viewBox="0 0 32 32" shape-rendering="crispEdges">
  <!-- Dark: Deep purple shadow, tendrils, red eye -->
  <g id="effects">
    <!-- Shadow particles -->
    <rect x="4" y="10" width="1" height="2" fill="#2D1B4A"/>
    <rect x="27" y="12" width="1" height="2" fill="#2D1B4A"/>
    <rect x="6" y="24" width="1" height="1" fill="#5B1B8B"/>
    <rect x="25" y="24" width="1" height="1" fill="#5B1B8B"/>
    <rect x="3" y="16" width="1" height="1" fill="#2D1B4A"/>
    <rect x="28" y="17" width="1" height="1" fill="#2D1B4A"/>
  </g>
  <g id="base">
    <!-- Dark mass body -->
    <rect x="12" y="7" width="8" height="1" fill="#2D1B4A"/>
    <rect x="10" y="8" width="12" height="1" fill="#2D1B4A"/>
    <rect x="9" y="9" width="14" height="1" fill="#2D1B4A"/>
    <rect x="8" y="10" width="16" height="1" fill="#2D1B4A"/>
    <rect x="8" y="11" width="16" height="1" fill="#2D1B4A"/>
    <rect x="7" y="12" width="18" height="1" fill="#5B1B8B"/>
    <rect x="7" y="13" width="18" height="1" fill="#5B1B8B"/>
    <rect x="7" y="14" width="18" height="1" fill="#2D1B4A"/>
    <rect x="7" y="15" width="18" height="1" fill="#2D1B4A"/>
    <rect x="8" y="16" width="16" height="1" fill="#2D1B4A"/>
    <rect x="8" y="17" width="16" height="1" fill="#2D1B4A"/>
    <rect x="9" y="18" width="14" height="1" fill="#5B1B8B"/>
    <rect x="10" y="19" width="12" height="1" fill="#5B1B8B"/>
    <rect x="12" y="20" width="8" height="1" fill="#2D1B4A"/>
    <!-- Red eye -->
    <rect x="13" y="12" width="6" height="1" fill="#9B1B30"/>
    <rect x="12" y="13" width="8" height="1" fill="#E83F5B"/>
    <rect x="13" y="14" width="6" height="1" fill="#9B1B30"/>
    <!-- Eye pupil -->
    <rect x="15" y="12" width="2" height="1" fill="#E83F5B"/>
    <rect x="15" y="13" width="2" height="1" fill="#FF2D55"/>
    <rect x="15" y="14" width="2" height="1" fill="#E83F5B"/>
    <!-- Eye white glint -->
    <rect x="14" y="13" width="1" height="1" fill="#FFFFFF"/>
    <!-- Shadow tendrils going down -->
    <rect x="10" y="20" width="2" height="1" fill="#2D1B4A"/>
    <rect x="20" y="20" width="2" height="1" fill="#2D1B4A"/>
    <rect x="9" y="21" width="2" height="1" fill="#2D1B4A"/>
    <rect x="21" y="21" width="2" height="1" fill="#2D1B4A"/>
    <rect x="8" y="22" width="2" height="1" fill="#5B1B8B"/>
    <rect x="22" y="22" width="2" height="1" fill="#5B1B8B"/>
    <rect x="7" y="23" width="2" height="1" fill="#5B1B8B"/>
    <rect x="23" y="23" width="2" height="1" fill="#5B1B8B"/>
    <rect x="7" y="24" width="1" height="1" fill="#2D1B4A"/>
    <rect x="24" y="24" width="1" height="1" fill="#2D1B4A"/>
    <!-- Center tendril -->
    <rect x="14" y="21" width="4" height="1" fill="#2D1B4A"/>
    <rect x="15" y="22" width="2" height="1" fill="#2D1B4A"/>
    <rect x="15" y="23" width="2" height="1" fill="#5B1B8B"/>
    <rect x="15" y="24" width="2" height="1" fill="#5B1B8B"/>
    <rect x="16" y="25" width="1" height="1" fill="#2D1B4A"/>
    <!-- Upper wisp -->
    <rect x="14" y="6" width="4" height="1" fill="#5B1B8B"/>
    <rect x="15" y="5" width="2" height="1" fill="#2D1B4A"/>
  </g>
  <g id="outline">
    <!-- Main body outline -->
    <rect x="15" y="4" width="2" height="1" fill="#0A0A14"/>
    <rect x="13" y="5" width="2" height="1" fill="#0A0A14"/>
    <rect x="17" y="5" width="2" height="1" fill="#0A0A14"/>
    <rect x="12" y="6" width="2" height="1" fill="#0A0A14"/>
    <rect x="18" y="6" width="2" height="1" fill="#0A0A14"/>
    <rect x="11" y="7" width="1" height="1" fill="#0A0A14"/>
    <rect x="20" y="7" width="1" height="1" fill="#0A0A14"/>
    <rect x="9" y="8" width="1" height="1" fill="#0A0A14"/>
    <rect x="22" y="8" width="1" height="1" fill="#0A0A14"/>
    <rect x="8" y="9" width="1" height="1" fill="#0A0A14"/>
    <rect x="23" y="9" width="1" height="1" fill="#0A0A14"/>
    <rect x="7" y="10" width="1" height="2" fill="#0A0A14"/>
    <rect x="24" y="10" width="1" height="2" fill="#0A0A14"/>
    <rect x="6" y="12" width="1" height="4" fill="#0A0A14"/>
    <rect x="25" y="12" width="1" height="4" fill="#0A0A14"/>
    <rect x="7" y="16" width="1" height="2" fill="#0A0A14"/>
    <rect x="24" y="16" width="1" height="2" fill="#0A0A14"/>
    <rect x="8" y="18" width="1" height="1" fill="#0A0A14"/>
    <rect x="23" y="18" width="1" height="1" fill="#0A0A14"/>
    <rect x="9" y="19" width="1" height="1" fill="#0A0A14"/>
    <rect x="22" y="19" width="1" height="1" fill="#0A0A14"/>
    <!-- Tendril outlines (left) -->
    <rect x="9" y="20" width="1" height="2" fill="#0A0A14"/>
    <rect x="8" y="21" width="1" height="1" fill="#0A0A14"/>
    <rect x="7" y="22" width="1" height="1" fill="#0A0A14"/>
    <rect x="6" y="23" width="1" height="2" fill="#0A0A14"/>
    <rect x="7" y="25" width="1" height="1" fill="#0A0A14"/>
    <!-- Tendril outlines (right) -->
    <rect x="22" y="20" width="1" height="1" fill="#0A0A14"/>
    <rect x="23" y="21" width="1" height="1" fill="#0A0A14"/>
    <rect x="24" y="22" width="1" height="1" fill="#0A0A14"/>
    <rect x="25" y="23" width="1" height="2" fill="#0A0A14"/>
    <rect x="24" y="25" width="1" height="1" fill="#0A0A14"/>
    <!-- Center tendril outline -->
    <rect x="13" y="20" width="1" height="1" fill="#0A0A14"/>
    <rect x="18" y="20" width="2" height="1" fill="#0A0A14"/>
    <rect x="13" y="21" width="1" height="1" fill="#0A0A14"/>
    <rect x="18" y="21" width="1" height="1" fill="#0A0A14"/>
    <rect x="14" y="22" width="1" height="3" fill="#0A0A14"/>
    <rect x="17" y="22" width="1" height="3" fill="#0A0A14"/>
    <rect x="15" y="25" width="1" height="1" fill="#0A0A14"/>
    <rect x="16" y="26" width="1" height="1" fill="#0A0A14"/>
  </g>
  <g id="highlight">
    <!-- Subtle purple highlight on top -->
    <rect x="13" y="9" width="1" height="1" fill="#9B3FE8"/>
    <rect x="11" y="12" width="1" height="1" fill="#9B3FE8"/>
  </g>
</svg>
